inDegrees=yes
name=ik_S54_A12_T01
DataType=double
version=3
OpenSimVersion=4.3-2021-08-27-4bc7ad9
endheader
time	pelvis_tilt	pelvis_list	pelvis_rotation	pelvis_tx	pelvis_ty	pelvis_tz	hip_flexion_r	hip_adduction_r	hip_rotation_r	knee_angle_r	knee_angle_r_beta	ankle_angle_r	subtalar_angle_r	mtp_angle_r	hip_flexion_l	hip_adduction_l	hip_rotation_l	knee_angle_l	knee_angle_l_beta	ankle_angle_l	subtalar_angle_l	mtp_angle_l	lumbar_extension	lumbar_bending	lumbar_rotation	arm_flex_r	arm_add_r	arm_rot_r	elbow_flex_r	pro_sup_r	wrist_flex_r	wrist_dev_r	arm_flex_l	arm_add_l	arm_rot_l	elbow_flex_l	pro_sup_l	wrist_flex_l	wrist_dev_l
8.679999999999904	-2.815710609248428	1.213021467453388	34.36689589099571	0	0.9399999999999999	0	31.4478289618031	-9.445623861865272	-8.765376382417518	36.25905692812869	0.6328399270639065	0	0	0	31.4478289618031	-9.445623861865272	-8.765376382417518	36.25905692812869	0.6328399270639065	0	0	0	-0.6877378336228316	3.338648067945634	9.767865210195055	13.29301576245146	-5.521361904295039	-3.683243932394946	3.438503373457805	134.4190770800227	0	0	91.36221532470873	-45.24595999008024	38.45595776947324	39.96477101955532	48.54444208119002	0	0
8.699999999999903	-2.876959338919954	1.258283938822232	34.0955381668177	0	0.9399999999999999	0	31.45519339004956	-9.44664371500361	-8.766833228194294	36.26623664012958	0.632965236677667	0	0	0	31.45519339004956	-9.44664371500361	-8.766833228194294	36.26623664012958	0.632965236677667	0	0	0	-0.7124745201538286	3.40991075564814	9.732319560705315	13.32993518865288	-5.607677423451863	-3.346952166489869	3.465500144539777	134.1784689217128	0	0	92.39969521723197	-44.97210029850294	39.24148667474175	39.31872410006584	47.91644940448358	0	0
8.719999999999903	-2.938323194446923	1.319191730856222	33.79534231173634	0	0.9399999999999999	0	31.46360737395904	-9.447809246494261	-8.768498389841598	36.27442829347654	0.6331082079997535	0	0	0	31.46360737395904	-9.447809246494261	-8.768498389841598	36.27442829347654	0.6331082079997535	0	0	0	-0.727797455308189	3.49407343213104	9.648316431713738	13.38084224259677	-5.707330138052805	-3.248586732984316	3.490980317369112	134.1297529443494	0	0	93.31299208679334	-44.84204411786062	39.89701929873277	38.86984186462155	47.37587477968241	0	0
8.739999999999903	-2.937821159052784	1.316535439541858	33.71174044183602	0	0.9399999999999999	0	31.47213142632029	-9.448988042286693	-8.770183923189061	36.28272994163208	0.6332530990934098	0	0	0	31.47213142632029	-9.448988042286693	-8.770183923189061	36.28272994163208	0.6332530990934098	0	0	0	-0.7311130552923844	3.491487206452502	9.732024399174275	13.39563150442111	-5.720710096989005	-3.576746035514588	3.50313900041985	134.073518169808	0	0	94.19034731869489	-44.35761969101928	40.70512790054057	38.58904753569961	46.7112415244944	0	0
8.759999999999902	-3.014326973714077	1.403952090175922	33.34777037996974	0	0.9399999999999999	0	31.48142020831675	-9.450271325148146	-8.772019974500726	36.29177331146219	0.6334109356724207	0	0	0	31.48142020831675	-9.450271325148146	-8.772019974500726	36.29177331146219	0.6334109356724207	0	0	0	-0.7437274875279213	3.605850436672014	9.594584309318369	13.44175521073244	-5.842907170552507	-3.324236910662386	3.510573048564078	133.9833878421675	0	0	94.67060306849027	-44.38122903041909	41.37346254688096	38.50087747445134	45.54923813654903	0	0
8.779999999999902	-3.058776414037998	1.46056408943755	33.15579780736801	0	0.9399999999999999	0	31.48773977846687	-9.451142801122305	-8.773267905994404	36.29793002411265	0.6335183905792704	0	0	0	31.48773977846687	-9.451142801122305	-8.773267905994404	36.29793002411265	0.6335183905792704	0	0	0	-0.7497320708623526	3.677242432282193	9.585897652983993	13.48339337455213	-5.977267562293965	-3.702398113583346	3.459675468057871	134.2780024799722	0	0	95.08553220062856	-44.03719976806686	42.10611055577304	37.82488500195246	45.12995417672898	0	0
8.799999999999901	-3.092461985101424	1.478541847459336	32.93878375207316	0	0.9399999999999999	0	31.49969995769742	-9.452790439728341	-8.77562880607821	36.30957693377412	0.6337216675005455	0	0	0	31.49969995769742	-9.452790439728341	-8.77562880607821	36.30957693377412	0.6337216675005455	0	0	0	-0.7686625139900871	3.710742129860234	9.618598914983728	13.55674012196116	-6.02052299132639	-3.783473837641445	3.499703550414114	133.8982096953804	0	0	95.53804391376659	-43.73672915864167	42.817971846419	37.89709623061189	43.05728286507892	0	0
8.819999999999901	-3.111997691556465	1.494419257238706	32.71215564038669	0	0.9399999999999999	0	31.51122729871599	-9.454369477946544	-8.77789675729831	36.32084147792128	0.6339182708846497	0	0	0	31.51122729871599	-9.454369477946544	-8.77789675729831	36.32084147792128	0.6339182708846497	0	0	0	-0.7796289846846074	3.736560447776035	9.753741492160648	13.58587603936809	-6.056775663215607	-3.94665611934856	3.448529486607081	134.1742400841913	0	0	95.44842613863462	-43.81323628932611	42.77609196024058	38.49595438454543	40.53215447133756	0	0
8.8399999999999	-3.112039110211361	1.492557790378074	32.55458050834324	0	0.9399999999999999	0	31.5212119400353	-9.455737995332855	-8.779862551259061	36.33057842734055	0.6340882127111162	0	0	0	31.5212119400353	-9.455737995332855	-8.779862551259061	36.33057842734055	0.6340882127111162	0	0	0	-0.7853592694611353	3.734757947966497	9.910559604332942	13.60640339442134	-6.046263284086097	-4.14572303705985	3.468177861730575	133.8835284550166	0	0	96.06115756133647	-43.10589556666611	43.25526416318657	38.16191658396319	38.15999420289859	0	0
8.8599999999999	-3.161208219840799	1.536585103746761	32.3952078589059	0	0.9399999999999999	0	31.52564256563048	-9.456343035147968	-8.780732958623377	36.33490964958801	0.6341638067999698	0	0	0	31.52564256563048	-9.456343035147968	-8.780732958623377	36.33490964958801	0.6341638067999698	0	0	0	-0.8037858095703108	3.798302708886334	9.91613352194625	13.65627851632955	-6.129955504791063	-4.15983124103589	3.460125953400044	133.8013680063347	0	0	96.23608592121414	-43.03300753479198	42.88781849341438	38.08918297117756	37.09757694336113	0	0
8.8799999999999	-3.207096372086034	1.597488706123333	32.15469919490338	0	0.9399999999999999	0	31.52783349331719	-9.456640596365395	-8.781161895619997	36.33706119261757	0.634201358309834	0	0	0	31.52783349331719	-9.456640596365395	-8.781161895619997	36.33706119261757	0.634201358309834	0	0	0	-0.8084657670628231	3.873972940473082	9.837869738430634	13.68594330047467	-6.17980355089767	-4.0263942911984	3.468878646437672	133.7711564593778	0	0	96.54040994322321	-43.18922769353488	42.43678102956353	38.05335433559366	37.01495955688712	0	0
8.899999999999899	-3.255897131639886	1.632823806215543	32.02086949619921	0	0.9399999999999999	0	31.53039878072028	-9.456989711599403	-8.781664819162776	36.33957487007134	0.6342452302577354	0	0	0	31.53039878072028	-9.456989711599403	-8.781664819162776	36.33957487007134	0.6342452302577354	0	0	0	-0.8313041371114742	3.9296490966637	9.835524251362633	13.75300297173158	-6.269334988871758	-4.059538782508811	3.456995897104942	133.7067956102409	0	0	96.78296516207294	-43.08564338825899	41.97141130026836	38.0373336632811	36.82166609594371	0	0
8.919999999999899	-3.283932439670676	1.6641243074528	31.93944218850616	0	0.9399999999999999	0	31.53325463399074	-9.457379642059372	-8.782225930658743	36.34236395370456	0.6342939089502485	0	0	0	31.53325463399074	-9.457379642059372	-8.782225930658743	36.34236395370456	0.6342939089502485	0	0	0	-0.838613028491295	3.970866352027819	9.830832739248546	13.77868371839459	-6.348665340810109	-4.169845404687496	3.432681534029699	133.6694218877353	0	0	96.76420962969863	-42.85722957087327	41.79763652716692	38.01781620009119	36.85734850858823	0	0
8.939999999999898	-3.317621392442665	1.706326020722555	31.87194926078961	0	0.9399999999999999	0	31.53499474437129	-9.457614532142404	-8.782565338409306	36.34408047779552	0.6343238679473256	0	0	0	31.53499474437129	-9.457614532142404	-8.782565338409306	36.34408047779552	0.6343238679473256	0	0	0	-0.845004135451988	4.02439173917531	9.829225798889549	13.77407489012813	-6.447377358205705	-4.08521254556593	3.4239068421718	133.6251148963036	0	0	96.66490772680078	-42.71365386261423	42.03899890476519	38.05177904696051	36.84936849296135	0	0
8.959999999999898	-3.319256521407827	1.716527627608218	31.84168507371009	0	0.9399999999999999	0	31.53967855052199	-9.458252177664821	-8.783484017317328	36.34866334045844	0.6344038539899605	0	0	0	31.53967855052199	-9.458252177664821	-8.783484017317328	36.34866334045844	0.6344038539899605	0	0	0	-0.8421652185601963	4.03380259109275	9.859273442488311	13.77188404137324	-6.438865097915274	-4.236290487544338	3.412259720866483	133.5607019513955	0	0	96.72941906429118	-42.60065516755107	42.64478338133615	38.13186039987099	36.70902851302436	0	0
8.979999999999897	-3.340158064412295	1.722025714664141	31.80567134582861	0	0.9399999999999999	0	31.54641038294973	-9.459169259049879	-8.784805200292526	36.35524053237689	0.6345186476444729	0	0	0	31.54641038294973	-9.459169259049879	-8.784805200292526	36.35524053237689	0.6345186476444729	0	0	0	-0.8574145125041085	4.04928542298908	9.859607114446984	13.79556415713302	-6.454923625318211	-4.264420791782512	3.427691767462732	133.5695239781742	0	0	96.81216862650109	-42.54466129185756	43.25590205217043	38.18685236426067	36.52485948188493	0	0
